<svg xmlns="http://www.w3.org/2000/svg" width="120" height="120" viewBox="0 0 120 120">
  <path fill="#ffffff" d="M60 98l-1.2-1.1C42 82 28 70 28 54c0-9 7-16 16-16 4 0 8 2 11 5 3-3 7-5 11-5 9 0 16 7 16 16 0 16-14 28-32 43L60 98z" transform="translate(8,8) scale(0.55)"/>
  <path fill="#ffffff" d="M60 98l-1.2-1.1C42 82 28 70 28 54c0-9 7-16 16-16 4 0 8 2 11 5 3-3 7-5 11-5 9 0 16 7 16 16 0 16-14 28-32 43L60 98z" transform="translate(58,38) scale(0.45)"/>
  <path fill="#ffffff" d="M60 98l-1.2-1.1C42 82 28 70 28 54c0-9 7-16 16-16 4 0 8 2 11 5 3-3 7-5 11-5 9 0 16 7 16 16 0 16-14 28-32 43L60 98z" transform="translate(28,58) scale(0.4)"/>
</svg>
